<?xml version="1.0" standalone="no"?>
<!DOCTYPE svg PUBLIC "-//W3C//DTD SVG 20010904//EN"
 "http://www.w3.org/TR/2001/REC-SVG-20010904/DTD/svg10.dtd">
<svg version="1.0" xmlns="http://www.w3.org/2000/svg"
 width="320.000000pt" height="320.000000pt" viewBox="0 0 320.000000 320.000000"
 preserveAspectRatio="xMidYMid meet">

<g transform="translate(0.000000,320.000000) scale(0.100000,-0.100000)"
fill="#000000" stroke="none">
<path d="M1180 2985 l0 -105 -215 0 -215 0 0 -110 0 -110 -105 0 -105 0 0
-105 0 -105 -110 0 -110 0 0 -215 0 -215 -105 0 -105 0 0 -425 0 -425 105 0
105 0 2 -212 3 -213 100 0 100 0 3 213 2 212 430 0 430 0 0 -105 0 -105 215 0
215 0 0 105 0 105 425 0 425 0 2 -212 3 -213 100 0 100 0 3 213 2 212 -100 0
-100 0 0 105 0 105 100 0 99 0 3 -103 3 -102 108 -3 107 -3 0 426 0 425 -110
0 -110 0 0 215 0 215 -105 0 -105 0 0 105 0 105 -107 0 -108 0 0 107 0 108
-212 3 -213 2 0 105 0 105 -425 0 -425 0 0 -105z m478 -1392 l152 -6 0 -209 0
-208 -210 0 -210 0 0 215 0 215 58 0 c33 0 127 -3 210 -7z m-1128 -318 l0
-105 -105 0 -105 0 0 105 0 105 105 0 105 0 0 -105z"/>
<path d="M2457 743 c-4 -3 -7 -53 -7 -110 l0 -103 110 0 110 0 0 110 0 110
-103 0 c-57 0 -107 -3 -110 -7z"/>
<path d="M540 635 l0 -105 105 0 105 0 0 -105 0 -105 215 0 216 0 -3 103 -3
102 -212 3 -213 2 0 105 0 105 -105 0 -105 0 0 -105z"/>
<path d="M2030 425 l0 -105 213 2 212 3 0 100 0 100 -212 3 -213 2 0 -105z"/>
<path d="M1393 313 l-213 -3 0 -105 0 -105 425 0 426 0 -3 108 -3 107 -210 0
c-115 0 -306 -1 -422 -2z"/>
</g>
</svg>
